<svg width="210" height="55" viewBox="0 0 210 55" fill="none" xmlns="http://www.w3.org/2000/svg">
<g filter="url(#filter0_dddddddd_6_112)">
<path d="M32.98 39.596H39.834V40.516H35.924V41.206H35.28V41.666H32.428V41.896H33.854C33.7927 42.3253 33.6087 42.632 33.302 42.816H32.29C32.1367 42.9387 31.9067 43 31.6 43H22.814C22.538 43 22.3233 42.9387 22.17 42.816H23.182C22.8753 42.632 22.6913 42.3253 22.63 41.896H21.158V41.666H24.01V41.206H24.654V40.516H28.564V39.596H21.71V38.676H23.412V38.446H21.894V37.986H21.94V37.526H21.204V36.606H21.802V35.686H19.916V34.766H20.376V33.846H22.492V32.926H21.986V32.466H21.802V32.236H21.618V31.546H21.894V31.316H22.124V30.856H22.078V30.396H21.94V29.936H20.008V29.476H20.514V29.384C20.514 29.2613 20.4987 29.154 20.468 29.062C20.468 28.97 20.468 28.878 20.468 28.786H21.388C21.3573 28.6327 21.3267 28.51 21.296 28.418C21.2653 28.2953 21.2347 28.188 21.204 28.096H22.032C21.848 27.6973 21.5873 27.3907 21.25 27.176H19.778C19.4407 26.9613 18.996 26.854 18.444 26.854C17.892 26.854 17.4627 26.9613 17.156 27.176H18.26C18.1067 27.2987 17.9533 27.4367 17.8 27.59C17.6773 27.7127 17.5853 27.8813 17.524 28.096H16.144C16.0827 28.2187 16.0213 28.4487 15.96 28.786H16.19C16.1593 28.9087 16.144 29.108 16.144 29.384V29.476H15.822V29.936H17.34V30.396H17.432V30.856H17.294V31.316H16.972V31.546H16.65V32.236H17.156V32.466H17.478V32.926H17.294V33.846H18.49V34.766H17.202V35.686H17.432V36.606H16.926V37.526H17.478V37.986H17.432V38.216H17.57V38.446H20.1V38.676H21.158V39.596H18.306V40.516H18.398V41.206H16.65V41.666H18.628V41.896H19.134C19.0727 42.3253 18.8733 42.632 18.536 42.816H16.42C16.2667 42.9387 16.052 43 15.776 43H7.036C6.76 43 6.54533 42.9387 6.392 42.816H8.508C8.17067 42.632 7.97133 42.3253 7.91 41.896H7.404V41.666H5.426V41.206H7.174V40.516H7.082V39.596H9.934V38.676H8.876V38.446H6.346V38.216H6.208V37.986H6.254V37.526H5.702V36.606H6.208V35.686H5.978V34.766H7.266V33.846H6.07V32.926H6.254V32.466H5.932V32.236H5.426V31.546H5.748V31.316H6.07V30.856H6.208V30.396H6.116V29.936H4.598V29.476H4.92V28.786H4.69V28.096H6.07V27.176H4.92V26.486H5.932V26.026H6.208V25.336H6.024V24.646H6.07V23.496H6.3V23.036H6.254V22.346H6.852V22.116H6.484V21.426H7.036V21.196H5.196V20.736H6.53V20.046H9.014C9.07533 19.862 9.13667 19.7087 9.198 19.586H7.726C7.97133 19.2487 8.30867 19.08 8.738 19.08H16.788C17.2173 19.08 17.5547 19.2487 17.8 19.586H18.582C19.2567 19.2793 19.9773 19.0493 20.744 18.896C21.5107 18.712 22.308 18.62 23.136 18.62C24.6693 18.62 26.0493 18.942 27.276 19.586H27.782C27.9353 19.6473 28.0733 19.724 28.196 19.816C28.3187 19.8773 28.4413 19.954 28.564 20.046H27.92C28.0733 20.138 28.2267 20.2453 28.38 20.368C28.5333 20.46 28.6713 20.5827 28.794 20.736H32.382C32.566 20.8587 32.7193 21.012 32.842 21.196H30.312C30.3427 21.2267 30.3733 21.2573 30.404 21.288C30.4347 21.3187 30.4653 21.3647 30.496 21.426H31.14C31.232 21.5487 31.324 21.6713 31.416 21.794C31.508 21.886 31.5847 21.9933 31.646 22.116H32.06L32.198 22.346H31.6L32.014 23.036H32.06C32.1213 23.1893 32.198 23.3427 32.29 23.496H32.06C32.2133 23.8333 32.336 24.14 32.428 24.416C32.428 24.4467 32.4587 24.5233 32.52 24.646H32.474C32.5353 24.7687 32.566 24.8913 32.566 25.014C32.5967 25.106 32.6273 25.2133 32.658 25.336H32.842C32.9033 25.4587 32.934 25.5813 32.934 25.704C32.9647 25.796 32.9953 25.9033 33.026 26.026H32.704C32.7653 26.21 32.796 26.3633 32.796 26.486H31.83C31.8607 26.6087 31.876 26.7313 31.876 26.854C31.876 26.946 31.8913 27.0533 31.922 27.176H33.394C33.4247 27.2987 33.44 27.452 33.44 27.636C33.4707 27.7893 33.486 27.9427 33.486 28.096H32.658V28.786H31.784V29.476H31.278V29.936H33.21V30.396H33.348V30.856H33.394V31.316H33.164V31.546H32.888V32.236H33.072V32.466H33.256V32.926H33.762V33.846H31.646V34.766H31.186V35.686H33.072V36.606H32.474V37.526H33.21V37.986H33.164V38.446H34.682V38.676H32.98V39.596ZM17.524 20.046H17.018C17.018 20.0767 17.018 20.1227 17.018 20.184C17.0487 20.2147 17.064 20.2607 17.064 20.322V20.368C17.1253 20.3067 17.202 20.2453 17.294 20.184C17.386 20.1227 17.4627 20.0767 17.524 20.046ZM15.73 20.736V21.196H19.548L20.1 20.736H15.73ZM17.018 21.426V21.84C17.0793 21.748 17.202 21.61 17.386 21.426H17.018ZM66.9201 29.706C66.9508 29.8593 66.9661 30.0127 66.9661 30.166C66.9661 30.3193 66.9661 30.4727 66.9661 30.626H63.7001V31.086H61.8141V31.546H63.6081V31.776H61.5381V32.466H60.3881V32.696H62.9641C62.9641 32.788 62.9488 32.8647 62.9181 32.926H62.7801V33.156H63.1941V33.202C63.1941 33.3247 63.1788 33.4627 63.1481 33.616C63.1481 33.7693 63.1328 33.9227 63.1021 34.076H62.7801L62.6421 34.996H63.3321C63.3321 35.1187 63.3014 35.272 63.2401 35.456H63.1021C63.0714 35.5787 63.0408 35.7013 63.0101 35.824C62.9794 35.916 62.9488 36.0233 62.9181 36.146H63.2861C63.2554 36.2993 63.2094 36.4527 63.1481 36.606C63.0868 36.7593 63.0254 36.9127 62.9641 37.066H62.2741L62.0901 37.526H62.1821C62.1208 37.6487 62.0901 37.7253 62.0901 37.756H61.9061C61.7834 38.0627 61.6148 38.3693 61.4001 38.676H61.4921C61.4614 38.7373 61.4154 38.814 61.3541 38.906C61.2928 38.998 61.2314 39.0747 61.1701 39.136H61.1241L60.5721 39.826C60.5414 39.8567 60.5108 39.8873 60.4801 39.918C60.4494 39.9487 60.4034 39.9947 60.3421 40.056H60.1121C59.9894 40.1787 59.8668 40.3013 59.7441 40.424C59.6214 40.516 59.4834 40.6233 59.3301 40.746H57.9501L56.9841 41.436H57.1681C57.1068 41.4667 57.0454 41.4973 56.9841 41.528C56.9228 41.5587 56.8614 41.6047 56.8001 41.666H56.4781C56.4168 41.6967 56.3401 41.7273 56.2481 41.758C56.1561 41.7887 56.0794 41.8347 56.0181 41.896H58.5021C58.3488 41.988 58.1801 42.08 57.9961 42.172C57.8121 42.2333 57.6281 42.2947 57.4441 42.356H56.6621C56.4474 42.448 56.2174 42.54 55.9721 42.632C55.7268 42.6933 55.4814 42.7547 55.2361 42.816H55.4201C55.0521 42.908 54.6688 42.9847 54.2701 43.046C53.8714 43.138 53.4574 43.2147 53.0281 43.276H54.4541C53.9634 43.3373 53.4574 43.3833 52.9361 43.414C52.4148 43.4447 51.8781 43.46 51.3261 43.46C50.7434 43.46 50.1914 43.4447 49.6701 43.414C49.1794 43.3833 48.6734 43.3373 48.1521 43.276H46.6801C46.2814 43.2147 45.8674 43.138 45.4381 43.046C45.0394 42.9847 44.6561 42.908 44.2881 42.816H44.1501C43.9048 42.7547 43.6594 42.6933 43.4141 42.632C43.1994 42.54 42.9694 42.448 42.7241 42.356H43.4601C43.3068 42.2947 43.1381 42.2333 42.9541 42.172C42.7701 42.08 42.6014 41.988 42.4481 41.896H39.9641L39.5501 41.666H39.8721L39.4581 41.436H39.2741C38.9061 41.1907 38.5841 40.9607 38.3081 40.746H39.6881C39.5654 40.6233 39.4428 40.516 39.3201 40.424C39.1974 40.3013 39.0748 40.1787 38.9521 40.056H39.1821C39.1514 39.9947 39.1208 39.9487 39.0901 39.918C39.0594 39.8873 39.0134 39.8567 38.9521 39.826L38.4001 39.136H38.4461L38.1241 38.676H38.0321C37.8174 38.3693 37.6488 38.0627 37.5261 37.756H37.6641C37.6028 37.6333 37.5721 37.5567 37.5721 37.526H37.4341L37.2501 37.066H37.9401C37.9094 36.9127 37.8634 36.7593 37.8021 36.606C37.7408 36.4527 37.6794 36.2993 37.6181 36.146H37.2501C37.2194 36.0233 37.1888 35.916 37.1581 35.824C37.1274 35.7013 37.0968 35.5787 37.0661 35.456H36.7901L36.6521 34.996H36.1921L36.0541 34.076H36.5141C36.4834 33.9227 36.4528 33.7693 36.4221 33.616C36.4221 33.4627 36.4221 33.3247 36.4221 33.202V33.156H35.5941V32.926H35.3641C35.3641 32.8647 35.3488 32.8187 35.3181 32.788C35.3181 32.7573 35.3181 32.7267 35.3181 32.696H37.8941C37.8941 32.604 37.8788 32.5273 37.8481 32.466H35.2721V31.776H36.3761V31.546H36.9281V31.086H37.8941V30.626H35.0881C35.0881 30.4727 35.0881 30.3193 35.0881 30.166C35.0881 30.0127 35.1034 29.8593 35.1341 29.706H34.5361V29.246H39.0901C39.1208 29.154 39.1361 29.0313 39.1361 28.878V28.556H37.8941C37.8941 28.4333 37.8941 28.326 37.8941 28.234C37.9248 28.1113 37.9401 27.9887 37.9401 27.866H38.4001L38.5381 26.946H37.0201C37.0508 26.8233 37.0814 26.716 37.1121 26.624C37.1428 26.5013 37.1734 26.3787 37.2041 26.256H36.8821C36.9434 26.1027 36.9894 25.9493 37.0201 25.796C37.0814 25.612 37.1428 25.4587 37.2041 25.336H37.2501C37.2808 25.2747 37.3114 25.198 37.3421 25.106C37.3728 25.014 37.4034 24.9373 37.4341 24.876H37.3881C37.3881 24.8453 37.4188 24.7687 37.4801 24.646H37.7101C37.8328 24.3393 38.0014 24.0327 38.2161 23.726H37.2961L37.5721 23.266H39.2741C39.3048 23.2047 39.3661 23.128 39.4581 23.036H36.1001C36.1614 22.9133 36.2381 22.806 36.3301 22.714C36.4528 22.5913 36.5601 22.4687 36.6521 22.346H37.7101C37.8634 22.1927 38.0168 22.0393 38.1701 21.886C38.3541 21.702 38.5228 21.5487 38.6761 21.426H40.7921C41.0681 21.1807 41.3901 20.9507 41.7581 20.736H42.6321C42.7548 20.644 42.8774 20.5673 43.0001 20.506C43.1534 20.414 43.2914 20.3373 43.4141 20.276H40.7001C40.9761 20.1227 41.3134 19.9693 41.7121 19.816H42.9541C43.6594 19.54 44.3954 19.31 45.1621 19.126H43.7821C45.2848 18.7887 46.8794 18.62 48.5661 18.62C50.2528 18.62 51.8474 18.7887 53.3501 19.126H54.7761C55.5428 19.31 56.2634 19.54 56.9381 19.816H55.6501C56.0488 19.9693 56.3861 20.1227 56.6621 20.276H59.3761C59.5294 20.3373 59.6674 20.414 59.7901 20.506C59.9434 20.5673 60.0814 20.644 60.2041 20.736H59.3301L60.2961 21.426H58.1801C58.3641 21.5487 58.5328 21.702 58.6861 21.886C58.8701 22.0393 59.0388 22.1927 59.1921 22.346H58.1341C58.2261 22.4687 58.3181 22.5913 58.4101 22.714C58.5328 22.806 58.6248 22.9133 58.6861 23.036H62.0901L62.2281 23.266H60.5721L60.8481 23.726H61.7681C61.9828 24.0327 62.1514 24.3393 62.2741 24.646H62.0441C62.1054 24.7687 62.1361 24.8453 62.1361 24.876H62.2281L62.4121 25.336H62.3661C62.4274 25.4587 62.4888 25.612 62.5501 25.796C62.6114 25.9493 62.6574 26.1027 62.6881 26.256H63.1481L63.2861 26.946H63.0101C63.0714 27.0687 63.1021 27.222 63.1021 27.406C63.1328 27.5593 63.1634 27.7127 63.1941 27.866H63.5621C63.5928 27.9887 63.6081 28.1113 63.6081 28.234C63.6081 28.326 63.6234 28.4333 63.6541 28.556H61.8601V28.878C61.8601 29.0313 61.8754 29.154 61.9061 29.246H60.9861V29.706H66.9201ZM49.2561 27.866C49.2254 27.9887 49.1948 28.1113 49.1641 28.234C49.1641 28.326 49.1641 28.4333 49.1641 28.556H50.4521C50.4214 28.648 50.4061 28.74 50.4061 28.832C50.4061 28.924 50.4061 29.016 50.4061 29.108V29.246H50.5901V29.108C50.5901 29.016 50.5748 28.924 50.5441 28.832C50.5441 28.74 50.5441 28.648 50.5441 28.556H52.3381C52.3381 28.4333 52.3228 28.326 52.2921 28.234C52.2921 28.1113 52.2921 27.9887 52.2921 27.866H51.9241C51.8934 27.682 51.8474 27.5133 51.7861 27.36C51.7554 27.2067 51.7094 27.0687 51.6481 26.946H51.9701C51.8474 26.67 51.6634 26.44 51.4181 26.256H50.9581C50.6514 26.072 50.2528 25.98 49.7621 25.98C49.2714 25.98 48.8881 26.072 48.6121 26.256H48.9341C48.8114 26.348 48.7041 26.4553 48.6121 26.578C48.5201 26.67 48.4434 26.7927 48.3821 26.946H49.9001C49.8694 27.0687 49.8234 27.2067 49.7621 27.36C49.7314 27.5133 49.7008 27.682 49.6701 27.866H49.2561ZM52.3841 30.626H55.6501V29.706H49.7161C49.6854 29.5833 49.6701 29.43 49.6701 29.246H45.8521C45.8521 29.43 45.8368 29.5833 45.8061 29.706H46.4041V30.626H49.2101V31.086H48.1981V31.546H47.6461V31.776H46.5421C46.5421 31.8987 46.5421 32.0213 46.5421 32.144C46.5728 32.236 46.5881 32.3433 46.5881 32.466H50.2221V31.776H52.2921V31.546H50.4981V31.086H52.3841V30.626ZM51.6481 32.926V32.696H46.6341V32.926H46.8641V32.972C46.8641 33.0027 46.8641 33.0333 46.8641 33.064C46.8948 33.0947 46.9101 33.1253 46.9101 33.156H47.6921C47.7228 33.3093 47.7381 33.4627 47.7381 33.616C47.7381 33.7693 47.7534 33.9227 47.7841 34.076H47.3241C47.3854 34.4747 47.4468 34.7813 47.5081 34.996H48.0141C48.0754 35.18 48.1368 35.3333 48.1981 35.456H48.5201C48.7961 35.8853 49.3174 36.1 50.0841 36.1C50.8508 36.1 51.3721 35.8853 51.6481 35.456H51.8321C51.8628 35.3947 51.8934 35.3333 51.9241 35.272C51.9548 35.18 51.9854 35.088 52.0161 34.996H51.3261C51.3568 34.8427 51.3874 34.7047 51.4181 34.582C51.4488 34.4287 51.4794 34.26 51.5101 34.076H51.8321C51.8628 33.9227 51.8781 33.7693 51.8781 33.616C51.8781 33.4627 51.8934 33.3093 51.9241 33.156H51.5101V32.926H51.6481ZM88.4298 37.756H87.3258V38.216H88.9818V38.676H90.4998V39.366H89.4418V40.056H92.5238V40.746H87.5098V41.666H87.8778V41.758C87.8778 41.8193 87.8624 41.8653 87.8318 41.896C87.7704 42.2027 87.6631 42.4327 87.5098 42.586H87.1418C87.0191 42.7087 86.9271 42.7853 86.8658 42.816H88.4298C88.2764 42.9387 88.0618 43 87.7858 43H82.5878C82.0664 43 81.5451 42.9847 81.0238 42.954C80.5331 42.9233 80.0578 42.8773 79.5978 42.816H78.0338C77.8191 42.7853 77.6044 42.7547 77.3898 42.724C77.1751 42.6627 76.9451 42.6167 76.6998 42.586H77.0678C76.6691 42.494 76.2858 42.3867 75.9178 42.264C75.5804 42.1413 75.2431 42.0187 74.9058 41.896H74.9518C74.8598 41.8347 74.7678 41.7887 74.6758 41.758C74.5838 41.7273 74.5071 41.6967 74.4458 41.666H74.0778C73.8324 41.5127 73.5871 41.3747 73.3418 41.252C73.0964 41.0987 72.8511 40.93 72.6058 40.746H77.6658C77.5431 40.6233 77.4051 40.516 77.2518 40.424C77.1291 40.3013 77.0064 40.1787 76.8838 40.056H73.8018L73.2038 39.366H74.3078C74.2158 39.2433 74.1238 39.136 74.0318 39.044C73.9704 38.9213 73.9091 38.7987 73.8478 38.676H72.3298L72.0538 38.216H70.3978C70.3671 38.1547 70.3364 38.078 70.3058 37.986C70.2751 37.894 70.2291 37.8173 70.1678 37.756H71.3178L71.0418 37.066H71.9618L71.8238 36.606C71.7624 36.422 71.7318 36.2687 71.7318 36.146H75.3658C75.3351 36.0233 75.3044 35.916 75.2738 35.824C75.2738 35.7013 75.2738 35.5787 75.2738 35.456H70.0298C70.0298 35.3947 70.0144 35.3487 69.9838 35.318C69.9838 35.2873 69.9838 35.2567 69.9838 35.226H69.8458C69.8458 35.1033 69.8304 34.996 69.7998 34.904C69.7998 34.7813 69.7998 34.6587 69.7998 34.536H69.6618C69.6618 34.4133 69.6464 34.306 69.6158 34.214C69.6158 34.0913 69.6158 33.9687 69.6158 33.846H70.2598V33.616H69.8458V33.156H69.4778V32.236H70.0298V31.316H69.4778V30.626H69.8918V30.166H69.9378V29.476H70.1678V27.866H70.2598V27.176H70.4898V27.13H66.8558C66.3958 27.13 66.0278 26.9153 65.7518 26.486H66.4418C66.3498 26.302 66.3038 26.1027 66.3038 25.888V25.566H64.8318V24.876H65.1538V23.956H64.9238V23.496H65.0158V23.036H65.7058V22.806H64.5558V22.116H65.9358V21.426H65.6598V20.966H65.3378V20.276H65.0618V20.046H64.9238C65.0158 19.586 65.3071 19.2793 65.7978 19.126H66.0738C66.1658 19.0953 66.2884 19.08 66.4418 19.08H70.0758V18.896H70.2598V18.206H69.8918V17.746H69.8458V17.056H69.6618V16.826H68.5578V16.366H67.4998V16.136H67.8678V15.906H68.9258V14.986H69.3398V14.526H67.8678V14.066H70.1218V13.376H69.8918V13.146H69.3858V12.686H69.8458V12.456H69.3858V11.766H69.7998V11.582C69.7998 11.4287 69.8304 11.26 69.8918 11.076H70.4898C70.7044 10.5853 71.0878 10.34 71.6398 10.34H79.6898C80.1804 10.34 80.5638 10.5853 80.8398 11.076H80.2418C80.3031 11.26 80.3338 11.4287 80.3338 11.582V11.766H79.9198V12.456H80.3798V12.686H79.9198V13.146H80.4258V13.376H80.6558V14.066H78.4018V14.526H79.8738V14.986H79.4598V15.906H78.4018V16.136H78.0338V16.366H79.0918V16.826H80.1958V17.056H80.3798V17.746H80.4258V18.206H80.7938V18.896H80.6098V19.08H86.4058C86.5591 19.08 86.6664 19.0953 86.7278 19.126H86.4518C86.8811 19.2793 87.1724 19.586 87.3258 20.046H87.4638C87.4638 20.0767 87.4638 20.1073 87.4638 20.138C87.4944 20.1687 87.5098 20.2147 87.5098 20.276H87.7858V20.966H88.1078V21.426H88.3838V22.116H87.0038V22.806H88.1538V23.036H87.4638V23.496H87.3718V23.956H87.6018V24.876H87.2798V25.566H88.7518V25.888C88.7518 26.0107 88.7364 26.118 88.7058 26.21C88.6751 26.302 88.6291 26.394 88.5678 26.486H87.9238C87.6478 26.9153 87.2798 27.13 86.8198 27.13H81.0238V27.176H80.7938V27.866H80.7018V29.476H80.4718V30.166H80.4258V30.626H80.0118V31.316H80.5638V32.236H80.0118C80.0118 32.3893 80.0118 32.5427 80.0118 32.696C80.0424 32.8493 80.0731 33.0027 80.1038 33.156H80.5178C80.5791 33.34 80.6404 33.4933 80.7018 33.616H81.0698L81.2078 33.846H80.5638C80.9011 34.2753 81.4224 34.49 82.1278 34.49H86.3138C86.4671 34.49 86.5744 34.5053 86.6358 34.536H86.7738C87.1418 34.628 87.4024 34.858 87.5558 35.226H87.6938C87.6938 35.2567 87.6938 35.2873 87.6938 35.318C87.7244 35.3487 87.7398 35.3947 87.7398 35.456H92.9838C92.9838 35.4867 92.9838 35.5327 92.9838 35.594C93.0144 35.6247 93.0298 35.6707 93.0298 35.732V36.146H89.3498V37.066H88.4298V37.756ZM90.8322 15.216V14.296H90.7862V13.606H91.2002V13.376H91.4762V12.456H91.2462V11.766H91.2922V10.846H91.4762V10.156H91.3842V9.742C91.3842 9.49667 91.4149 9.328 91.4762 9.236H91.9362L92.0742 9.006H91.7062C91.9515 8.66866 92.2889 8.5 92.7182 8.5H100.492C100.922 8.5 101.259 8.66866 101.504 9.006H101.872L102.01 9.236H101.504C101.596 9.35867 101.642 9.52733 101.642 9.742V10.156H101.734V10.846H101.55V11.766H101.504V12.456H101.734V13.376H101.458V13.606H101.044V14.296H101.09V15.216H101.412V15.308C101.412 15.584 101.305 15.86 101.09 16.136H100.538C100.324 16.412 100.017 16.55 99.6182 16.55H91.8442C91.4455 16.55 91.1235 16.412 90.8782 16.136H91.4302C91.2462 15.8907 91.1542 15.6147 91.1542 15.308V15.216H90.8322ZM100.308 24.876H104.632V25.796H103.068V26.256H101.32V27.176H102.654V27.406H101.78V27.866H101.918V28.326H102.148V29.016H99.8482V29.706H101.366V30.396H101.09V30.856H101.872V31.546H102.056V32.236H101.78V32.926H102.01V33.386H101.78V34.306H101.688V34.996H101.504V35.686H101.688V36.146H101.78V37.066H101.596V37.526H101.826V37.986H101.78V38.676H101.964V39.366H102.102V39.596H101.78V40.516H101.136V41.436H101.596V41.758C101.596 41.9113 101.581 42.034 101.55 42.126H101.228C101.136 42.4327 100.968 42.6627 100.722 42.816H101.642C101.489 42.9387 101.259 43 100.952 43H92.7182C92.4422 43 92.2275 42.9387 92.0742 42.816H91.1542C90.8782 42.6627 90.6942 42.4327 90.6022 42.126H90.9242C90.8935 42.034 90.8782 41.9113 90.8782 41.758V41.436H90.4182V40.516H91.0622V39.596H91.3842V39.366H91.2462V38.676H91.0622V37.986H91.1082V37.526H90.8782V37.066H91.0622V36.146H90.9702V35.686H90.7862V34.996H90.9702V34.306H91.0622V33.386H91.2922V32.926H91.0622V32.236H91.3382V31.546H91.1542V30.856H90.3722V30.396H90.6482V29.706H89.1302V29.016H91.4302V28.326H91.2002V27.866H91.0622V27.406H91.9362V27.176H90.6022V26.256H92.3502V25.796H93.9142V24.876H89.5902V24.416H93.4082V23.496H92.0282V22.806H92.8562V21.886H91.3842V21.656H91.0622V21.196H90.7862V20.506H91.1082V20.322C91.1082 19.9847 91.1849 19.7393 91.3382 19.586H91.3842C91.6295 19.2487 91.9669 19.08 92.3962 19.08H100.63C101.06 19.08 101.397 19.2487 101.642 19.586H101.55C101.734 19.77 101.826 20.0153 101.826 20.322V20.506H101.504V21.196H101.78V21.656H102.102V21.886H103.574V22.806H102.746V23.496H104.126V24.416H100.308V24.876ZM131.959 28.096H135.087C135.087 28.1267 135.071 28.1573 135.041 28.188C135.01 28.2187 134.979 28.2647 134.949 28.326H133.891C133.645 28.6327 133.308 28.786 132.879 28.786H123.909C123.479 28.786 123.142 28.6327 122.897 28.326H123.955L123.817 28.096H120.643L120.505 27.866C120.474 27.7433 120.397 27.59 120.275 27.406H119.493C119.309 27.0687 119.109 26.8387 118.895 26.716H120.045C119.799 26.5627 119.508 26.486 119.171 26.486C118.803 26.486 118.496 26.5627 118.251 26.716H117.285C117.039 26.8387 116.84 27.0687 116.687 27.406H116.273C116.211 27.5287 116.15 27.682 116.089 27.866H118.573C118.542 27.9273 118.527 28.004 118.527 28.096H119.769C119.738 28.1573 119.723 28.234 119.723 28.326H121.241C121.21 28.3873 121.195 28.464 121.195 28.556C121.195 28.648 121.179 28.7247 121.149 28.786H121.333V29.016H119.539V29.476H113.789V29.706H122.621C122.59 29.8593 122.575 30.0127 122.575 30.166C122.575 30.3193 122.575 30.4727 122.575 30.626H114.433V30.856H117.699V31.086H116.825V32.006H114.341C114.341 32.1287 114.341 32.2513 114.341 32.374C114.341 32.466 114.356 32.5733 114.387 32.696V33.156H117.147C117.147 33.3707 117.162 33.524 117.193 33.616H114.663C114.724 34.0147 114.785 34.3213 114.847 34.536H114.341C114.525 34.9653 114.785 35.272 115.123 35.456H116.641C116.886 35.548 117.147 35.594 117.423 35.594C117.76 35.594 118.036 35.548 118.251 35.456H118.895C119.171 35.3027 119.431 34.996 119.677 34.536H118.435L118.573 34.214C118.634 34.0913 118.695 33.984 118.757 33.892C118.849 33.7693 118.925 33.6773 118.987 33.616H122.207C122.483 33.4013 122.789 33.294 123.127 33.294H132.097C132.403 33.294 132.695 33.4013 132.971 33.616H129.751C130.057 33.8613 130.18 34.168 130.119 34.536H131.361C131.33 34.6587 131.299 34.7967 131.269 34.95C131.269 35.1033 131.238 35.272 131.177 35.456H130.487L130.349 35.916H133.293L133.201 36.146H132.235L132.143 36.376H127.037L126.899 36.606H132.465L131.959 37.526H132.419L132.281 37.756H128.831C128.739 37.9093 128.631 38.0627 128.509 38.216C128.417 38.3693 128.309 38.5227 128.187 38.676H127.359C127.328 38.7067 127.297 38.7373 127.267 38.768C127.236 38.7987 127.205 38.8447 127.175 38.906H130.349C130.318 38.9367 130.287 38.9673 130.257 38.998C130.226 39.0287 130.195 39.0747 130.165 39.136H127.865C127.834 39.1667 127.803 39.1973 127.773 39.228C127.742 39.2587 127.696 39.3047 127.635 39.366H129.567L129.107 39.826H128.877L128.647 40.056H129.199L128.647 40.516H129.475C129.321 40.6387 129.153 40.7613 128.969 40.884C128.815 40.976 128.647 41.0833 128.463 41.206H129.383L129.015 41.436H128.003L127.175 41.896H127.451C126.96 42.172 126.408 42.402 125.795 42.586H125.013C124.737 42.678 124.461 42.77 124.185 42.862C123.909 42.9233 123.633 42.9847 123.357 43.046H122.943C122.728 43.0767 122.513 43.1073 122.299 43.138C122.084 43.1993 121.869 43.2453 121.655 43.276H122.575C122.145 43.3373 121.701 43.3833 121.241 43.414C120.781 43.4447 120.305 43.46 119.815 43.46C119.355 43.46 118.91 43.4447 118.481 43.414C118.051 43.3833 117.622 43.3373 117.193 43.276H116.227C116.012 43.2453 115.797 43.1993 115.583 43.138C115.399 43.1073 115.199 43.0767 114.985 43.046H115.399C115.123 42.9847 114.847 42.9233 114.571 42.862C114.295 42.77 114.034 42.678 113.789 42.586H114.571C113.988 42.402 113.451 42.172 112.961 41.896H112.639C112.516 41.8347 112.378 41.7733 112.225 41.712C112.102 41.62 111.979 41.528 111.857 41.436H112.823L112.455 41.206H111.535L110.615 40.516H109.833C109.741 40.4547 109.649 40.378 109.557 40.286C109.465 40.194 109.388 40.1173 109.327 40.056H108.729L108.499 39.826H108.729L108.269 39.366H106.383C106.291 39.274 106.229 39.1973 106.199 39.136H108.499C108.407 39.044 108.345 38.9673 108.315 38.906H105.095C105.064 38.8447 105.003 38.768 104.911 38.676H105.739C105.616 38.5227 105.509 38.3693 105.417 38.216C105.325 38.0627 105.233 37.9093 105.141 37.756H108.591L108.453 37.526H107.993C107.901 37.3727 107.809 37.2193 107.717 37.066C107.655 36.9127 107.594 36.7593 107.533 36.606H102.013L101.921 36.376H107.027L106.935 36.146H107.901L107.809 35.916H104.865L104.727 35.456H103.209C103.178 35.3027 103.147 35.1493 103.117 34.996C103.086 34.8427 103.055 34.6893 103.025 34.536H103.485L103.347 33.616H105.877V33.156H103.117V32.926C103.086 32.7727 103.071 32.6193 103.071 32.466C103.071 32.3127 103.071 32.1593 103.071 32.006H105.555V31.086H106.429V30.856H103.163V30.626H111.305V29.706H102.519V29.476H108.269V29.016H110.063V28.786H109.879C109.909 28.7247 109.925 28.648 109.925 28.556C109.925 28.464 109.925 28.3873 109.925 28.326H108.453V28.096H107.211C107.211 28.004 107.226 27.9273 107.257 27.866H104.773C104.834 27.682 104.865 27.5287 104.865 27.406H105.325L105.463 26.716H106.429L106.705 25.796H106.797C106.827 25.6733 106.873 25.566 106.935 25.474C106.996 25.3513 107.042 25.2287 107.073 25.106H106.843C106.904 24.9527 106.965 24.7993 107.027 24.646C107.119 24.462 107.211 24.3087 107.303 24.186H107.027C107.088 24.0633 107.149 23.956 107.211 23.864C107.303 23.7413 107.395 23.6187 107.487 23.496H107.533C107.655 23.3427 107.778 23.1893 107.901 23.036C108.023 22.852 108.146 22.6987 108.269 22.576H108.315C108.499 22.3307 108.729 22.1007 109.005 21.886H108.775L109.051 21.656H108.959L109.235 21.426H110.937C110.998 21.3647 111.059 21.3187 111.121 21.288C111.182 21.2573 111.228 21.2267 111.259 21.196H110.247C110.308 21.1347 110.369 21.0887 110.431 21.058C110.492 21.0273 110.538 20.9967 110.569 20.966H110.201C110.753 20.598 111.289 20.2913 111.811 20.046H112.731C112.915 19.954 113.099 19.8773 113.283 19.816C113.467 19.724 113.651 19.6473 113.835 19.586H112.777C112.899 19.5247 113.007 19.4787 113.099 19.448C113.221 19.4173 113.344 19.3867 113.467 19.356H113.421C113.574 19.2947 113.712 19.2487 113.835 19.218C113.988 19.1873 114.126 19.1567 114.249 19.126H114.111C115.46 18.7887 116.871 18.62 118.343 18.62C119.171 18.62 119.953 18.666 120.689 18.758C121.425 18.85 122.115 18.9727 122.759 19.126H122.897C123.05 19.1567 123.188 19.1873 123.311 19.218C123.464 19.2487 123.602 19.2947 123.725 19.356H123.771C123.893 19.3867 124.001 19.4173 124.093 19.448C124.215 19.4787 124.338 19.5247 124.461 19.586H125.519C125.979 19.7393 126.362 19.8927 126.669 20.046H125.703C126.009 20.1687 126.301 20.322 126.577 20.506C126.853 20.6593 127.129 20.8127 127.405 20.966H127.773C127.834 20.9967 127.895 21.0273 127.957 21.058C128.018 21.0887 128.064 21.1347 128.095 21.196H129.107C129.168 21.2267 129.214 21.2573 129.245 21.288C129.306 21.3187 129.367 21.3647 129.429 21.426H127.727L128.003 21.656H128.095L128.371 21.886H128.555C128.708 22.0087 128.846 22.1313 128.969 22.254C129.091 22.346 129.214 22.4533 129.337 22.576H129.291C129.444 22.7293 129.582 22.8827 129.705 23.036C129.858 23.1893 129.996 23.3427 130.119 23.496H130.073C130.165 23.6187 130.257 23.7413 130.349 23.864C130.441 23.956 130.517 24.0633 130.579 24.186H130.855C130.977 24.3393 131.085 24.4927 131.177 24.646C131.269 24.7993 131.345 24.9527 131.407 25.106H131.683C131.744 25.2287 131.805 25.3513 131.867 25.474C131.928 25.566 131.974 25.6733 132.005 25.796H131.959C132.02 25.9493 132.081 26.1027 132.143 26.256C132.204 26.4093 132.25 26.5627 132.281 26.716H131.131L131.269 27.406H132.051V27.866L131.959 28.096ZM134.676 15.216V14.296H134.63V13.606H135.044V13.376H135.32V12.456H135.09V11.766H135.136V10.846H135.32V10.156H135.228V9.742C135.228 9.49667 135.259 9.328 135.32 9.236H135.78L135.918 9.006H135.55C135.795 8.66866 136.133 8.5 136.562 8.5H144.336C144.765 8.5 145.103 8.66866 145.348 9.006H145.716L145.854 9.236H145.348C145.44 9.35867 145.486 9.52733 145.486 9.742V10.156H145.578V10.846H145.394V11.766H145.348V12.456H145.578V13.376H145.302V13.606H144.888V14.296H144.934V15.216H145.256V15.308C145.256 15.584 145.149 15.86 144.934 16.136H144.382C144.167 16.412 143.861 16.55 143.462 16.55H135.688C135.289 16.55 134.967 16.412 134.722 16.136H135.274C135.09 15.8907 134.998 15.6147 134.998 15.308V15.216H134.676ZM144.152 24.876H148.476V25.796H146.912V26.256H145.164V27.176H146.498V27.406H145.624V27.866H145.762V28.326H145.992V29.016H143.692V29.706H145.21V30.396H144.934V30.856H145.716V31.546H145.9V32.236H145.624V32.926H145.854V33.386H145.624V34.306H145.532V34.996H145.348V35.686H145.532V36.146H145.624V37.066H145.44V37.526H145.67V37.986H145.624V38.676H145.808V39.366H145.946V39.596H145.624V40.516H144.98V41.436H145.44V41.758C145.44 41.9113 145.425 42.034 145.394 42.126H145.072C144.98 42.4327 144.811 42.6627 144.566 42.816H145.486C145.333 42.9387 145.103 43 144.796 43H136.562C136.286 43 136.071 42.9387 135.918 42.816H134.998C134.722 42.6627 134.538 42.4327 134.446 42.126H134.768C134.737 42.034 134.722 41.9113 134.722 41.758V41.436H134.262V40.516H134.906V39.596H135.228V39.366H135.09V38.676H134.906V37.986H134.952V37.526H134.722V37.066H134.906V36.146H134.814V35.686H134.63V34.996H134.814V34.306H134.906V33.386H135.136V32.926H134.906V32.236H135.182V31.546H134.998V30.856H134.216V30.396H134.492V29.706H132.974V29.016H135.274V28.326H135.044V27.866H134.906V27.406H135.78V27.176H134.446V26.256H136.194V25.796H137.758V24.876H133.434V24.416H137.252V23.496H135.872V22.806H136.7V21.886H135.228V21.656H134.906V21.196H134.63V20.506H134.952V20.322C134.952 19.9847 135.029 19.7393 135.182 19.586H135.228C135.473 19.2487 135.811 19.08 136.24 19.08H144.474C144.903 19.08 145.241 19.2487 145.486 19.586H145.394C145.578 19.77 145.67 20.0153 145.67 20.322V20.506H145.348V21.196H145.624V21.656H145.946V21.886H147.418V22.806H146.59V23.496H147.97V24.416H144.152V24.876ZM173.879 40.516V40.976H177.881V41.758C177.881 41.8193 177.866 41.8653 177.835 41.896H175.673C175.612 42.3253 175.412 42.632 175.075 42.816H174.661C174.508 42.9387 174.293 43 174.017 43H165.967C165.691 43 165.476 42.9387 165.323 42.816H165.691C165.384 42.6013 165.2 42.2947 165.139 41.896H167.347V40.976H165.507C165.354 41.1293 165.185 41.2827 165.001 41.436C164.848 41.5893 164.679 41.7427 164.495 41.896H163.989C163.437 42.2947 162.885 42.6013 162.333 42.816H160.861C160.646 42.908 160.401 42.9847 160.125 43.046C159.88 43.138 159.619 43.2147 159.343 43.276H158.975C158.668 43.3373 158.346 43.3833 158.009 43.414C157.702 43.4447 157.38 43.46 157.043 43.46C156.675 43.46 156.307 43.4447 155.939 43.414C155.602 43.3833 155.264 43.3373 154.927 43.276H155.295C154.988 43.2147 154.682 43.138 154.375 43.046C154.099 42.9847 153.823 42.908 153.547 42.816H154.973C154.298 42.5707 153.685 42.264 153.133 41.896H153.639C153.424 41.7427 153.225 41.5893 153.041 41.436C152.857 41.2827 152.673 41.1293 152.489 40.976H150.189L149.775 40.516C149.744 40.4547 149.698 40.378 149.637 40.286C149.576 40.194 149.514 40.1173 149.453 40.056H150.833C150.772 39.9333 150.695 39.826 150.603 39.734C150.542 39.6113 150.48 39.4887 150.419 39.366H150.005C150.005 39.3353 149.974 39.2587 149.913 39.136H149.499L149.361 38.906H149.407L149.131 38.216H148.901C148.87 38.0933 148.84 37.986 148.809 37.894C148.778 37.7713 148.748 37.6487 148.717 37.526H146.969C146.877 37.1887 146.831 36.882 146.831 36.606H148.349V36.146C148.349 35.9927 148.349 35.8393 148.349 35.686C148.349 35.502 148.364 35.3487 148.395 35.226H149.775C149.806 35.0727 149.836 34.9193 149.867 34.766C149.898 34.582 149.928 34.4287 149.959 34.306H148.671L148.763 34.076H148.809L148.901 33.846H148.855C148.916 33.7233 148.978 33.616 149.039 33.524C149.1 33.4013 149.146 33.2787 149.177 33.156H146.463L146.739 32.696H145.727C145.819 32.604 145.88 32.5273 145.911 32.466H147.567C147.628 32.4047 147.69 32.328 147.751 32.236C147.812 32.144 147.874 32.0673 147.935 32.006H148.027C148.334 31.638 148.656 31.3313 148.993 31.086H145.221C145.436 30.9327 145.666 30.7793 145.911 30.626C146.126 30.442 146.356 30.2887 146.601 30.166H149.131L149.545 29.936H150.833C150.894 29.8747 150.971 29.8287 151.063 29.798C151.155 29.7673 151.232 29.7367 151.293 29.706H151.845C152.397 29.43 152.995 29.2 153.639 29.016H156.445C156.874 28.8627 157.304 28.74 157.733 28.648C158.193 28.5253 158.668 28.418 159.159 28.326H158.009L158.745 28.188L163.621 27.406V27.176H165.967V26.946H161.551V26.716H164.173C164.173 26.5627 164.173 26.44 164.173 26.348C164.173 26.2253 164.158 26.118 164.127 26.026C164.096 25.75 163.989 25.52 163.805 25.336H163.023C162.992 25.3053 162.916 25.2593 162.793 25.198L162.471 25.336H161.689C161.566 25.428 161.444 25.5353 161.321 25.658C161.198 25.75 161.06 25.8727 160.907 26.026H160.953C160.616 26.3633 160.186 26.532 159.665 26.532H151.845C151.385 26.532 151.078 26.3633 150.925 26.026H150.879C150.787 25.8727 150.756 25.704 150.787 25.52V25.336H151.523C151.554 25.2747 151.569 25.198 151.569 25.106H148.625C148.625 24.9833 148.656 24.83 148.717 24.646H155.341C155.341 24.6153 155.372 24.5387 155.433 24.416H151.339C151.431 24.1093 151.569 23.8027 151.753 23.496H152.535C152.627 23.3427 152.734 23.1893 152.857 23.036C152.98 22.8827 153.102 22.7293 153.225 22.576H149.775L150.189 22.116H156.859C156.982 21.9933 157.104 21.886 157.227 21.794C157.38 21.6713 157.518 21.5487 157.641 21.426H153.409L153.685 21.196H152.397C152.55 21.0733 152.719 20.966 152.903 20.874C153.087 20.7513 153.271 20.6287 153.455 20.506H155.617C156.261 20.138 156.936 19.8313 157.641 19.586H157.963C158.791 19.2793 159.711 19.0493 160.723 18.896C161.766 18.712 162.9 18.62 164.127 18.62C166.642 18.62 168.773 18.942 170.521 19.586H170.153C170.49 19.7087 170.812 19.8467 171.119 20C171.456 20.1533 171.778 20.322 172.085 20.506H169.923L170.889 21.196H172.177L172.453 21.426H176.685L177.375 22.116H170.705C170.766 22.1773 170.828 22.254 170.889 22.346C170.95 22.438 171.012 22.5147 171.073 22.576H174.477C174.6 22.6987 174.707 22.852 174.799 23.036C174.922 23.1893 175.014 23.3427 175.075 23.496H174.339L174.753 24.416H178.847C178.908 24.5387 178.939 24.6153 178.939 24.646H172.315C172.376 24.7073 172.407 24.784 172.407 24.876C172.438 24.968 172.468 25.0447 172.499 25.106H174.017C174.017 25.1367 174.017 25.1673 174.017 25.198C174.048 25.2287 174.063 25.2747 174.063 25.336H174.845L175.121 26.716H172.453C172.453 26.7467 172.453 26.7773 172.453 26.808C172.484 26.8387 172.499 26.8847 172.499 26.946H176.915V27.176H174.615V27.406C174.646 27.5593 174.661 27.7127 174.661 27.866C174.661 28.0193 174.661 28.1727 174.661 28.326H175.857V29.016H173.005V29.706H172.499V29.936H171.257V30.166H168.727V31.086H172.499V32.006H172.407V32.466H170.751V32.696H171.763V33.156H174.799V33.846H174.247V34.306H174.615V35.226H174.339V36.606H172.821V37.526H174.569V38.216H174.799V39.136H175.213V39.366H175.581V40.056H174.155V40.516H173.879ZM160.539 25.06C160.324 25.06 160.171 25.0753 160.079 25.106H161.045C160.953 25.0753 160.784 25.06 160.539 25.06ZM160.861 33.064L160.447 33.156H160.861V33.064ZM159.297 34.306H160.585C160.248 34.5513 160.079 34.858 160.079 35.226H158.699V35.364C158.699 35.6707 158.806 35.9313 159.021 36.146C159.174 36.3607 159.481 36.514 159.941 36.606H161.045C161.505 36.514 161.904 36.3607 162.241 36.146C162.517 35.9007 162.778 35.594 163.023 35.226H163.253C163.314 35.0727 163.376 34.9347 163.437 34.812C163.498 34.6587 163.544 34.49 163.575 34.306H163.207C163.207 34.2447 163.207 34.1987 163.207 34.168C163.238 34.1373 163.253 34.1067 163.253 34.076H163.299V33.846H163.851C163.882 33.7233 163.897 33.616 163.897 33.524C163.897 33.4013 163.897 33.2787 163.897 33.156H163.115L160.861 33.662C160.738 33.6927 160.616 33.7233 160.493 33.754C160.401 33.7847 160.309 33.8153 160.217 33.846C160.125 33.8767 160.033 33.9073 159.941 33.938C159.849 33.9687 159.772 34.0147 159.711 34.076H159.665C159.604 34.1067 159.542 34.1373 159.481 34.168C159.42 34.1987 159.358 34.2447 159.297 34.306ZM159.527 36.606H158.377C158.5 36.6367 158.684 36.652 158.929 36.652C159.021 36.652 159.113 36.652 159.205 36.652C159.328 36.652 159.435 36.6367 159.527 36.606ZM204.84 38.906H202.954C202.77 39.2127 202.556 39.5193 202.31 39.826H203.138C203.108 39.8873 203.046 39.964 202.954 40.056H200.93C200.808 40.1787 200.685 40.3013 200.562 40.424C200.47 40.516 200.348 40.6233 200.194 40.746H200.148C199.995 40.8687 199.826 40.9913 199.642 41.114C199.489 41.206 199.32 41.3133 199.136 41.436H198.308C198.032 41.62 197.726 41.7887 197.388 41.942C197.051 42.0647 196.714 42.2027 196.376 42.356H196.192C196.1 42.3867 195.993 42.4173 195.87 42.448C195.778 42.4787 195.656 42.5247 195.502 42.586H200.746C200.624 42.6167 200.486 42.6473 200.332 42.678C200.21 42.7087 200.072 42.7547 199.918 42.816H197.618C197.22 42.908 196.806 42.9847 196.376 43.046C195.947 43.138 195.502 43.2147 195.042 43.276H193.662C193.172 43.3373 192.65 43.3833 192.098 43.414C191.546 43.4447 190.964 43.46 190.35 43.46C189.768 43.46 189.216 43.4447 188.694 43.414C188.204 43.3833 187.728 43.3373 187.268 43.276H188.602C188.173 43.2147 187.759 43.138 187.36 43.046C186.962 42.9847 186.578 42.908 186.21 42.816H188.51L187.728 42.586H182.484C182.392 42.5247 182.285 42.4787 182.162 42.448C182.07 42.4173 181.963 42.3867 181.84 42.356H181.978C181.641 42.2027 181.304 42.0493 180.966 41.896C180.66 41.7427 180.353 41.5893 180.046 41.436H180.874C180.69 41.3133 180.506 41.206 180.322 41.114C180.169 40.9913 180.016 40.8687 179.862 40.746H179.954C179.801 40.6233 179.663 40.516 179.54 40.424C179.418 40.3013 179.295 40.1787 179.172 40.056H181.15C181.12 39.9947 181.089 39.9487 181.058 39.918C181.028 39.8873 180.997 39.8567 180.966 39.826H180.092C179.97 39.6727 179.847 39.5193 179.724 39.366C179.602 39.2127 179.479 39.0593 179.356 38.906H181.288C181.166 38.7527 181.074 38.5993 181.012 38.446C180.951 38.262 180.89 38.1087 180.828 37.986H179.954C179.893 37.8633 179.862 37.7867 179.862 37.756H178.436L178.298 37.296H177.24C177.21 37.204 177.194 37.066 177.194 36.882C177.194 36.6367 177.21 36.468 177.24 36.376H177.562C177.716 36.008 177.961 35.778 178.298 35.686H178.206C178.268 35.6553 178.375 35.64 178.528 35.64H186.716C186.747 35.64 186.778 35.6553 186.808 35.686C186.87 35.686 186.916 35.686 186.946 35.686H187.038C187.284 35.7473 187.498 35.8393 187.682 35.962C187.897 36.0847 188.112 36.2227 188.326 36.376H188.05C188.296 36.5293 188.556 36.6827 188.832 36.836C189.108 36.9587 189.43 37.02 189.798 37.02C190.044 37.02 190.274 36.974 190.488 36.882C190.703 36.7593 190.826 36.5907 190.856 36.376H190.994V36.33C190.994 36.054 190.933 35.8393 190.81 35.686C190.688 35.502 190.488 35.3487 190.212 35.226H189.66C189.354 35.0727 188.94 34.9193 188.418 34.766C187.928 34.6127 187.238 34.4593 186.348 34.306H186.762L186.026 34.168C185.781 34.1067 185.536 34.0607 185.29 34.03C185.045 33.9687 184.8 33.9073 184.554 33.846H184.738L183.956 33.616H184.048C183.65 33.4933 183.266 33.3553 182.898 33.202C182.53 33.0487 182.178 32.88 181.84 32.696H182.024L180.92 32.006H180.828C180.614 31.8527 180.414 31.6993 180.23 31.546C180.077 31.3927 179.924 31.2393 179.77 31.086H178.804C178.774 31.0247 178.743 30.9787 178.712 30.948C178.682 30.9173 178.651 30.8867 178.62 30.856H179.034C178.942 30.764 178.881 30.6873 178.85 30.626H177.562L177.056 29.936H179.034L178.758 29.476H178.114C177.961 29.1387 177.838 28.832 177.746 28.556H178.022C178.022 28.4947 178.007 28.4487 177.976 28.418C177.976 28.3873 177.976 28.3567 177.976 28.326H180.138C180.138 28.2033 180.108 28.05 180.046 27.866H175.998C175.998 27.7433 175.998 27.636 175.998 27.544C175.968 27.4213 175.937 27.2987 175.906 27.176H175.952L175.906 26.716H178.988C178.958 26.6547 178.942 26.578 178.942 26.486C178.942 26.3633 178.942 26.256 178.942 26.164C178.973 26.0413 178.988 25.9187 178.988 25.796H176.826L176.872 25.336H178.942L179.08 24.876H178.16C178.191 24.8147 178.222 24.738 178.252 24.646C178.283 24.554 178.314 24.4773 178.344 24.416H177.976C178.038 24.2933 178.099 24.186 178.16 24.094C178.222 23.9713 178.268 23.8487 178.298 23.726H178.482L178.758 23.266H178.712C178.774 23.1433 178.85 23.036 178.942 22.944C179.034 22.8213 179.126 22.6987 179.218 22.576C179.31 22.4533 179.402 22.346 179.494 22.254C179.586 22.1313 179.694 22.0087 179.816 21.886H179.724L179.954 21.656H179.908C179.939 21.5947 179.97 21.5487 180 21.518C180.062 21.4873 180.108 21.4567 180.138 21.426H180.23L180.782 20.966C180.844 20.9047 180.89 20.8587 180.92 20.828C180.982 20.7973 181.043 20.7667 181.104 20.736H180.23C180.752 20.3987 181.319 20.092 181.932 19.816H183.358C183.45 19.7547 183.542 19.7087 183.634 19.678C183.726 19.6473 183.834 19.6167 183.956 19.586H180.828C180.951 19.5247 181.058 19.4787 181.15 19.448C181.273 19.4173 181.396 19.3867 181.518 19.356H183.496C184.263 19.1107 185.076 18.9267 185.934 18.804C186.824 18.6813 187.759 18.62 188.74 18.62C189.752 18.62 190.703 18.6813 191.592 18.804C192.482 18.9267 193.31 19.1107 194.076 19.356H192.098C192.221 19.3867 192.328 19.4173 192.42 19.448C192.543 19.4787 192.666 19.5247 192.788 19.586H195.87L196.514 19.816H195.088C195.426 19.9387 195.748 20.092 196.054 20.276C196.361 20.4293 196.652 20.5827 196.928 20.736H197.802L198.17 20.966H198.216C198.339 21.0273 198.446 21.104 198.538 21.196C198.661 21.288 198.768 21.3647 198.86 21.426H198.814L199.09 21.656H199.136L199.412 21.886H199.504C199.78 22.1007 200.01 22.3307 200.194 22.576C200.44 22.7907 200.624 23.0207 200.746 23.266H200.792L201.068 23.726H200.838C200.9 23.8487 200.961 23.9713 201.022 24.094C201.084 24.186 201.13 24.2933 201.16 24.416H201.482L201.62 24.876H202.494L202.54 25.198V25.336H203.322C203.322 25.4587 203.292 25.612 203.23 25.796C203.016 26.2253 202.709 26.44 202.31 26.44H194.582C194.276 26.44 193.984 26.3787 193.708 26.256C193.463 26.1027 193.218 25.9493 192.972 25.796C192.758 25.6427 192.512 25.4893 192.236 25.336H191.454C191.148 25.152 190.81 25.06 190.442 25.06C190.136 25.06 189.89 25.152 189.706 25.336H187.682C187.529 25.4893 187.452 25.6427 187.452 25.796H189.614C189.614 25.9493 189.645 26.1027 189.706 26.256C189.768 26.4093 189.906 26.5627 190.12 26.716H187.084C187.238 26.7773 187.406 26.854 187.59 26.946C187.774 27.038 188.004 27.1147 188.28 27.176H188.234C188.602 27.2987 189.062 27.406 189.614 27.498C190.197 27.59 190.872 27.6973 191.638 27.82C191.7 27.82 191.746 27.8353 191.776 27.866C191.838 27.866 191.884 27.866 191.914 27.866H195.962C196.33 27.9273 196.683 28.004 197.02 28.096C197.388 28.1573 197.726 28.234 198.032 28.326H195.87C195.993 28.3567 196.1 28.3873 196.192 28.418C196.315 28.4487 196.438 28.4947 196.56 28.556H196.284C196.683 28.6787 197.036 28.8167 197.342 28.97C197.68 29.1233 198.002 29.292 198.308 29.476H198.998L199.734 29.936H197.756C197.91 30.0587 198.063 30.1813 198.216 30.304C198.37 30.396 198.508 30.5033 198.63 30.626H199.918L200.148 30.856H199.734L199.964 31.086H200.884C201.222 31.4233 201.467 31.73 201.62 32.006H201.712C201.804 32.1287 201.881 32.2513 201.942 32.374C202.004 32.466 202.065 32.5733 202.126 32.696H201.942C202.004 32.8493 202.065 33.0027 202.126 33.156C202.218 33.3093 202.28 33.4627 202.31 33.616H202.172L202.264 33.846H202.08C202.111 33.9073 202.126 33.984 202.126 34.076C202.126 34.168 202.142 34.2447 202.172 34.306H201.758C201.85 34.6127 201.896 34.9193 201.896 35.226H202.494V35.548C202.494 35.6707 202.479 35.8087 202.448 35.962C202.448 36.0847 202.448 36.2227 202.448 36.376H202.31C202.28 36.5293 202.249 36.6827 202.218 36.836C202.218 36.9893 202.188 37.1427 202.126 37.296H203.184C203.184 37.4493 203.138 37.6027 203.046 37.756H204.518C204.457 37.8787 204.426 37.9553 204.426 37.986H205.3C205.239 38.1393 205.162 38.2927 205.07 38.446C205.009 38.5993 204.932 38.7527 204.84 38.906Z" fill="white"/>
</g>
<defs>
<filter id="filter0_dddddddd_6_112" x="0.598" y="8.5" width="208.702" height="42.96" filterUnits="userSpaceOnUse" color-interpolation-filters="sRGB">
<feFlood flood-opacity="0" result="BackgroundImageFix"/>
<feColorMatrix in="SourceAlpha" type="matrix" values="0 0 0 0 0 0 0 0 0 0 0 0 0 0 0 0 0 0 127 0" result="hardAlpha"/>
<feOffset dy="4"/>
<feGaussianBlur stdDeviation="2"/>
<feComposite in2="hardAlpha" operator="out"/>
<feColorMatrix type="matrix" values="0 0 0 0 0 0 0 0 0 0 0 0 0 0 0 0 0 0 0.25 0"/>
<feBlend mode="normal" in2="BackgroundImageFix" result="effect1_dropShadow_6_112"/>
<feColorMatrix in="SourceAlpha" type="matrix" values="0 0 0 0 0 0 0 0 0 0 0 0 0 0 0 0 0 0 127 0" result="hardAlpha"/>
<feOffset dy="4"/>
<feGaussianBlur stdDeviation="2"/>
<feComposite in2="hardAlpha" operator="out"/>
<feColorMatrix type="matrix" values="0 0 0 0 0 0 0 0 0 0 0 0 0 0 0 0 0 0 0.25 0"/>
<feBlend mode="normal" in2="effect1_dropShadow_6_112" result="effect2_dropShadow_6_112"/>
<feColorMatrix in="SourceAlpha" type="matrix" values="0 0 0 0 0 0 0 0 0 0 0 0 0 0 0 0 0 0 127 0" result="hardAlpha"/>
<feOffset dy="4"/>
<feGaussianBlur stdDeviation="2"/>
<feComposite in2="hardAlpha" operator="out"/>
<feColorMatrix type="matrix" values="0 0 0 0 0 0 0 0 0 0 0 0 0 0 0 0 0 0 0.25 0"/>
<feBlend mode="normal" in2="effect2_dropShadow_6_112" result="effect3_dropShadow_6_112"/>
<feColorMatrix in="SourceAlpha" type="matrix" values="0 0 0 0 0 0 0 0 0 0 0 0 0 0 0 0 0 0 127 0" result="hardAlpha"/>
<feOffset dy="4"/>
<feGaussianBlur stdDeviation="2"/>
<feComposite in2="hardAlpha" operator="out"/>
<feColorMatrix type="matrix" values="0 0 0 0 0 0 0 0 0 0 0 0 0 0 0 0 0 0 0.25 0"/>
<feBlend mode="normal" in2="effect3_dropShadow_6_112" result="effect4_dropShadow_6_112"/>
<feColorMatrix in="SourceAlpha" type="matrix" values="0 0 0 0 0 0 0 0 0 0 0 0 0 0 0 0 0 0 127 0" result="hardAlpha"/>
<feOffset dy="4"/>
<feGaussianBlur stdDeviation="2"/>
<feComposite in2="hardAlpha" operator="out"/>
<feColorMatrix type="matrix" values="0 0 0 0 0 0 0 0 0 0 0 0 0 0 0 0 0 0 0.25 0"/>
<feBlend mode="normal" in2="effect4_dropShadow_6_112" result="effect5_dropShadow_6_112"/>
<feColorMatrix in="SourceAlpha" type="matrix" values="0 0 0 0 0 0 0 0 0 0 0 0 0 0 0 0 0 0 127 0" result="hardAlpha"/>
<feOffset dy="4"/>
<feGaussianBlur stdDeviation="2"/>
<feComposite in2="hardAlpha" operator="out"/>
<feColorMatrix type="matrix" values="0 0 0 0 0 0 0 0 0 0 0 0 0 0 0 0 0 0 0.25 0"/>
<feBlend mode="normal" in2="effect5_dropShadow_6_112" result="effect6_dropShadow_6_112"/>
<feColorMatrix in="SourceAlpha" type="matrix" values="0 0 0 0 0 0 0 0 0 0 0 0 0 0 0 0 0 0 127 0" result="hardAlpha"/>
<feOffset dy="4"/>
<feGaussianBlur stdDeviation="2"/>
<feComposite in2="hardAlpha" operator="out"/>
<feColorMatrix type="matrix" values="0 0 0 0 0 0 0 0 0 0 0 0 0 0 0 0 0 0 0.25 0"/>
<feBlend mode="normal" in2="effect6_dropShadow_6_112" result="effect7_dropShadow_6_112"/>
<feColorMatrix in="SourceAlpha" type="matrix" values="0 0 0 0 0 0 0 0 0 0 0 0 0 0 0 0 0 0 127 0" result="hardAlpha"/>
<feOffset dy="4"/>
<feGaussianBlur stdDeviation="2"/>
<feComposite in2="hardAlpha" operator="out"/>
<feColorMatrix type="matrix" values="0 0 0 0 0 0 0 0 0 0 0 0 0 0 0 0 0 0 0.25 0"/>
<feBlend mode="normal" in2="effect7_dropShadow_6_112" result="effect8_dropShadow_6_112"/>
<feBlend mode="normal" in="SourceGraphic" in2="effect8_dropShadow_6_112" result="shape"/>
</filter>
</defs>
</svg>
